<?xml version="1.0" encoding="UTF-8" standalone="no"?>
<!-- Created with Inkscape (http://www.inkscape.org/) -->

<svg
   width="540"
   height="540"
   viewBox="0 0 540 540"
   version="1.1"
   id="svg1"
   inkscape:version="1.3.2 (091e20e, 2023-11-25, custom)"
   xml:space="preserve"
   sodipodi:docname="logo-dark.svg"
   xmlns:inkscape="http://www.inkscape.org/namespaces/inkscape"
   xmlns:sodipodi="http://sodipodi.sourceforge.net/DTD/sodipodi-0.dtd"
   xmlns="http://www.w3.org/2000/svg"
   xmlns:svg="http://www.w3.org/2000/svg"
   xmlns:rdf="http://www.w3.org/1999/02/22-rdf-syntax-ns#"
   xmlns:cc="http://creativecommons.org/ns#"
   xmlns:dc="http://purl.org/dc/elements/1.1/"><sodipodi:namedview
     id="namedview1"
     pagecolor="#000000"
     bordercolor="#eeeeee"
     borderopacity="1"
     inkscape:showpageshadow="false"
     inkscape:pageopacity="0"
     inkscape:pagecheckerboard="false"
     inkscape:deskcolor="#121212"
     inkscape:document-units="px"
     showgrid="false"
     inkscape:zoom="0.55625"
     inkscape:cx="435.05618"
     inkscape:cy="168.08989"
     inkscape:window-width="1360"
     inkscape:window-height="697"
     inkscape:window-x="-8"
     inkscape:window-y="-8"
     inkscape:window-maximized="1"
     inkscape:current-layer="layer1"><inkscape:grid
       id="grid1"
       units="px"
       originx="480"
       originy="270"
       spacingx="1"
       spacingy="1"
       empcolor="#0099e5"
       empopacity="0.69803922"
       color="#4d4d4d"
       opacity="0.69803922"
       empspacing="5"
       dotted="false"
       gridanglex="30"
       gridanglez="30"
       visible="false" /></sodipodi:namedview><defs
     id="defs1" /><g
     inkscape:label="Capa 1"
     inkscape:groupmode="layer"
     id="layer1"
     style="display:inline"><g
       id="g12"
       style="display:inline"
       transform="matrix(0.61688533,0,0,0.61688533,-43.497988,-30.68483)"><path
         id="path5"
         style="display:inline;fill:#00b3e5;fill-opacity:1;stroke:none;stroke-width:6.17985"
         d="m 507.8457,141.11719 a 2103.0599,2103.0599 0 0 0 -235.83789,12.76562 c -33.06202,3.81485 -57.61328,32.23132 -57.61328,67.44531 v 433.32813 a 73.362554,73.362554 0 0 0 73.36328,73.36133 h 440.17383 a 73.362554,73.362554 0 0 0 73.36328,-73.36133 V 221.32812 c 0,-35.16508 -24.55125,-63.63046 -57.61328,-67.44531 -54.38605,-6.21135 -135.28043,-12.76562 -235.83594,-12.76562 z" /><g
         id="g8"
         inkscape:label="items"
         style="display:inline;fill:#ffe4e1;stroke:none"
         transform="matrix(48.908369,0,0,48.908369,116.57793,92.209473)"><path
           id="path6"
           style="display:inline;fill:#ffe500;fill-opacity:1;stroke:none"
           d="m 3.9999904,9.999996 a 1,1 0 0 0 -0.9999966,0.999997 1,1 0 1 0 1.9999932,0 1,1 0 0 0 -0.9999966,-0.999997 z m 8.0000126,0 a 1,1 0 0 0 -0.999996,0.999997 1,1 0 1 0 1.999993,0 1,1 0 0 0 -0.999997,-0.999997 z"
           inkscape:label="lights" /><path
           id="path7"
           style="display:inline;fill:#ffffff;stroke:none"
           d="M 8.0000168,1.9999832 A 44,44 0 0 0 3.4480175,2.2260118 0.5,0.5 0 1 0 3.5520066,3.2200182 C 4.6470055,3.1070183 6.1630186,3.0000198 8.0000168,3.0000198 A 43,43 0 0 1 12.447987,3.2200182 0.5,0.5 0 1 0 12.552016,2.2260118 C 11.426017,2.1090119 9.8760149,1.9999832 8.0000168,1.9999832 Z m 0,2.0000332 c -1.8759981,0 -3.4260004,0.1089887 -4.5519993,0.2259886 A 0.5,0.5 0 0 0 2.9999938,4.7229882 v 3.5539994 a 0.5,0.5 0 0 0 0.4480237,0.4970232 c 1.1259989,0.1169999 2.6760012,0.2259886 4.5519993,0.2259886 1.8759981,0 3.4260002,-0.1089887 4.5519992,-0.2259886 A 0.5,0.5 0 0 0 13,8.2769876 V 4.7229882 A 0.5,0.5 0 0 0 12.552016,4.226005 44,44 0 0 0 8.0000168,4.0000164 Z"
           inkscape:label="window" /><path
           id="path8"
           style="display:inline;fill:#ffffff;stroke:none"
           d="m 6.9999802,9.999996 a 1,1 0 1 0 0,1.999993 h 2.0000332 a 1,1 0 1 0 0,-1.999993 z" /></g><path
         id="path9"
         style="display:inline;fill:#000000;fill-opacity:0.469816;stroke:none;stroke-width:6.17985"
         d="m 507.84566,149.01759 a 2103.0599,2103.0599 0 0 0 -235.83787,12.76562 c -33.06193,3.81485 -57.61328,32.23141 -57.61328,67.44531 v 433.32809 a 73.362554,73.362554 0 0 0 73.36328,73.36132 h 440.1738 a 73.362554,73.362554 0 0 0 73.36327,-73.36132 V 229.22852 c 0,-35.16499 -24.55134,-63.63046 -57.61328,-67.44531 -54.38587,-6.21132 -135.28071,-12.76562 -235.83592,-12.76562 z m 0,48.90819 c 91.75182,0 167.56018,5.33243 222.63085,11.05469 a 24.454183,24.454183 0 1 1 -5.08789,48.61523 2103.0597,2103.0597 0 0 0 -217.54296,-10.75976 c -89.84439,0 -163.9904,5.23314 -217.5449,10.75976 a 24.454183,24.454183 0 1 1 -5.08594,-48.61523 2151.9681,2151.9681 0 0 1 222.63084,-11.05469 z m 0,97.81836 a 2151.9681,2151.9681 0 0 1 222.63085,11.05273 24.454183,24.454183 0 0 1 21.91015,24.30664 v 173.8203 a 24.454183,24.454183 0 0 1 -21.91015,24.30859 c -55.07067,5.72226 -130.87903,11.05273 -222.63085,11.05273 -91.7518,0 -167.56018,-5.33047 -222.63084,-11.05273 a 24.454183,24.454183 0 0 1 -21.91211,-24.30859 v -173.8203 a 24.454183,24.454183 0 0 1 21.91211,-24.30664 c 55.07066,-5.72226 130.87904,-11.05273 222.63084,-11.05273 z M 312.21091,589.19333 a 48.908365,48.908365 0 0 1 48.9082,48.9082 48.908365,48.908365 0 1 1 -97.8164,0 48.908365,48.908365 0 0 1 48.9082,-48.9082 z m 146.7246,0 h 97.81835 a 48.908365,48.908365 0 1 1 0,97.8164 h -97.81835 a 48.908365,48.908365 0 1 1 0,-97.8164 z m 244.54295,0 a 48.908365,48.908365 0 0 1 48.9082,48.9082 48.908365,48.908365 0 1 1 -97.8164,0 48.908365,48.908365 0 0 1 48.9082,-48.9082 z"
         inkscape:label="shadow" /><path
         d="m 850.90354,491.37609 a 48.908369,48.908369 0 0 0 48.90836,-48.90837 v -97.81674 a 48.908369,48.908369 0 0 0 -48.90836,-48.90836 v -66.51539 c 0,-58.10314 -41.32758,-109.16348 -100.94688,-116.01065 A 2151.9682,2151.9682 0 0 0 508.54495,100.10914 c -102.70757,0 -185.46053,6.65154 -241.41171,13.10744 -59.6193,6.84717 -100.94687,57.90751 -100.94687,116.01065 v 66.51539 A 48.908369,48.908369 0 0 0 117.278,344.65098 v 97.81674 a 48.908369,48.908369 0 0 0 48.90837,48.90837 v 171.17929 c 0,40.00705 19.22099,75.51452 48.90837,97.81674 v 97.81674 a 24.454184,24.454184 0 0 0 24.45418,24.45418 h 97.81674 a 24.454184,24.454184 0 0 0 24.45418,-24.45418 v -73.36255 h 293.45022 v 73.36255 a 24.454184,24.454184 0 0 0 24.45418,24.45418 h 97.81674 a 24.454184,24.454184 0 0 0 24.45419,-24.45418 v -97.81674 c 29.68738,-22.30222 48.90837,-57.80969 48.90837,-97.81674 z M 508.54495,149.01751 c 100.55561,0 181.45005,6.55372 235.83616,12.76508 33.06205,3.81486 57.61406,32.27953 57.61406,67.44464 v 433.32815 a 73.362554,73.362554 0 0 1 -73.36256,73.36256 H 288.45729 A 73.362554,73.362554 0 0 1 215.09474,662.55538 V 229.22723 c 0,-35.21402 24.552,-63.62978 57.61406,-67.44464 a 2103.0599,2103.0599 0 0 1 235.83615,-12.76508"
         id="path2"
         style="display:inline;fill:#000000;fill-opacity:0.47;stroke-width:48.9084"
         inkscape:label="outer-shadow" /><path
         id="path12"
         style="display:inline;fill:#00b3e5;fill-opacity:1;stroke:none;stroke-width:6.17985"
         d="M 507.84566,141.11718 A 2103.0599,2103.0599 0 0 0 272.00779,153.8828 c -33.06193,3.81485 -57.61328,32.23141 -57.61328,67.44531 V 654.6562 a 73.362554,73.362554 0 0 0 73.36328,73.36132 h 440.1738 A 73.362554,73.362554 0 0 0 801.29486,654.6562 V 221.32811 c 0,-35.16499 -24.55134,-63.63046 -57.61328,-67.44531 -54.38587,-6.21132 -135.28071,-12.76562 -235.83592,-12.76562 z m 0,48.90819 c 91.75182,0 167.56018,5.33243 222.63085,11.05469 a 24.454183,24.454183 0 1 1 -5.08789,48.61523 2103.0597,2103.0597 0 0 0 -217.54296,-10.75976 c -89.84439,0 -163.9904,5.23314 -217.5449,10.75976 a 24.454183,24.454183 0 1 1 -5.08594,-48.61523 2151.9681,2151.9681 0 0 1 222.63084,-11.05469 z m 0,97.81836 a 2151.9681,2151.9681 0 0 1 222.63085,11.05273 24.454183,24.454183 0 0 1 21.91015,24.30664 v 173.8203 a 24.454183,24.454183 0 0 1 -21.91015,24.30859 c -55.07067,5.72226 -130.87903,11.05273 -222.63085,11.05273 -91.7518,0 -167.56018,-5.33047 -222.63084,-11.05273 A 24.454183,24.454183 0 0 1 263.30271,497.0234 V 323.2031 a 24.454183,24.454183 0 0 1 21.91211,-24.30664 c 55.07066,-5.72226 130.87904,-11.05273 222.63084,-11.05273 z M 312.21091,581.29292 a 48.908365,48.908365 0 0 1 48.9082,48.9082 48.908365,48.908365 0 1 1 -97.8164,0 48.908365,48.908365 0 0 1 48.9082,-48.9082 z m 146.7246,0 h 97.81835 a 48.908365,48.908365 0 1 1 0,97.8164 h -97.81835 a 48.908365,48.908365 0 1 1 0,-97.8164 z m 244.54295,0 a 48.908365,48.908365 0 0 1 48.9082,48.9082 48.908365,48.908365 0 1 1 -97.8164,0 48.908365,48.908365 0 0 1 48.9082,-48.9082 z"
         inkscape:label="over" /><path
         d="M 15,8 A 1,1 0 0 0 16,7 V 5 A 1,1 0 0 0 15,4 V 2.64 C 15,1.452 14.155,0.408 12.936,0.268 A 44,44 0 0 0 8,0 C 5.9,0 4.208,0.136 3.064,0.268 1.845,0.408 1,1.452 1,2.64 V 4 A 1,1 0 0 0 0,5 v 2 a 1,1 0 0 0 1,1 v 3.5 c 0,0.818 0.393,1.544 1,2 v 2 A 0.5,0.5 0 0 0 2.5,16 h 2 A 0.5,0.5 0 0 0 5,15.5 V 14 h 6 v 1.5 a 0.5,0.5 0 0 0 0.5,0.5 h 2 A 0.5,0.5 0 0 0 14,15.5 v -2 c 0.607,-0.456 1,-1.182 1,-2 z M 8,1 c 2.056,0 3.71,0.134 4.822,0.261 C 13.498,1.339 14,1.921 14,2.64 V 11.5 A 1.5,1.5 0 0 1 12.5,13 h -9 A 1.5,1.5 0 0 1 2,11.5 V 2.64 C 2,1.92 2.502,1.339 3.178,1.261 A 43,43 0 0 1 8,1"
         id="path13"
         style="display:inline;fill:#ffffff"
         transform="matrix(48.908369,0,0,48.908369,116.57793,92.209473)"
         inkscape:label="outer" /></g></g><metadata
     id="metadata1"><rdf:RDF><cc:Work
         rdf:about=""><dc:creator><cc:Agent><dc:title>1812</dc:title></cc:Agent></dc:creator></cc:Work></rdf:RDF></metadata></svg>
