<?xml version="1.0" encoding="UTF-8" standalone="no"?>
<!-- Created with Inkscape (http://www.inkscape.org/) -->

<svg
   width="540"
   height="540"
   viewBox="0 0 540 540"
   version="1.1"
   id="svg1"
   inkscape:version="1.3.2 (091e20e, 2023-11-25, custom)"
   xml:space="preserve"
   sodipodi:docname="logo-light.svg"
   inkscape:export-filename="logo-light-2.svg"
   inkscape:export-xdpi="96"
   inkscape:export-ydpi="96"
   xmlns:inkscape="http://www.inkscape.org/namespaces/inkscape"
   xmlns:sodipodi="http://sodipodi.sourceforge.net/DTD/sodipodi-0.dtd"
   xmlns="http://www.w3.org/2000/svg"
   xmlns:svg="http://www.w3.org/2000/svg"
   xmlns:rdf="http://www.w3.org/1999/02/22-rdf-syntax-ns#"
   xmlns:cc="http://creativecommons.org/ns#"
   xmlns:dc="http://purl.org/dc/elements/1.1/"><sodipodi:namedview
     id="namedview1"
     pagecolor="#000000"
     bordercolor="#eeeeee"
     borderopacity="1"
     inkscape:showpageshadow="false"
     inkscape:pageopacity="0"
     inkscape:pagecheckerboard="false"
     inkscape:deskcolor="#000000"
     inkscape:document-units="px"
     showgrid="false"
     inkscape:zoom="0.55625"
     inkscape:cx="163.59551"
     inkscape:cy="286.74157"
     inkscape:window-width="1360"
     inkscape:window-height="697"
     inkscape:window-x="-8"
     inkscape:window-y="-8"
     inkscape:window-maximized="1"
     inkscape:current-layer="layer1"><inkscape:grid
       id="grid1"
       units="px"
       originx="480"
       originy="270"
       spacingx="1"
       spacingy="1"
       empcolor="#0099e5"
       empopacity="0.69803922"
       color="#4d4d4d"
       opacity="0.69803922"
       empspacing="5"
       dotted="false"
       gridanglex="30"
       gridanglez="30"
       visible="false" /></sodipodi:namedview><defs
     id="defs1"><clipPath
       clipPathUnits="userSpaceOnUse"
       id="clipPath46"><g
         id="g49"
         inkscape:label="items"
         style="display:inline;fill:#ffe4e1;stroke:none"
         transform="matrix(30.170855,0,0,30.170855,28.417227,26.197841)"><path
           id="path47"
           style="display:inline;fill:#ffe500;fill-opacity:1;stroke:none"
           d="m 3.9999904,9.999996 a 1,1 0 0 0 -0.9999966,0.999997 1,1 0 1 0 1.9999932,0 1,1 0 0 0 -0.9999966,-0.999997 z m 8.0000126,0 a 1,1 0 0 0 -0.999996,0.999997 1,1 0 1 0 1.999993,0 1,1 0 0 0 -0.999997,-0.999997 z"
           inkscape:label="lights" /><path
           id="path48"
           style="display:inline;fill:#00b1e2;fill-opacity:1;stroke:none"
           d="M 8.0000168,1.9999832 A 44,44 0 0 0 3.4480175,2.2260118 0.5,0.5 0 1 0 3.5520066,3.2200182 C 4.6470055,3.1070183 6.1630186,3.0000198 8.0000168,3.0000198 A 43,43 0 0 1 12.447987,3.2200182 0.5,0.5 0 1 0 12.552016,2.2260118 C 11.426017,2.1090119 9.8760149,1.9999832 8.0000168,1.9999832 Z m 0,2.0000332 c -1.8759981,0 -3.4260004,0.1089887 -4.5519993,0.2259886 A 0.5,0.5 0 0 0 2.9999938,4.7229882 v 3.5539994 a 0.5,0.5 0 0 0 0.4480237,0.4970232 c 1.1259989,0.1169999 2.6760012,0.2259886 4.5519993,0.2259886 1.8759981,0 3.4260002,-0.1089887 4.5519992,-0.2259886 A 0.5,0.5 0 0 0 13,8.2769876 V 4.7229882 A 0.5,0.5 0 0 0 12.552016,4.226005 44,44 0 0 0 8.0000168,4.0000164 Z"
           inkscape:label="window" /><path
           id="path49"
           style="display:inline;fill:#00b1e2;fill-opacity:1;stroke:none"
           d="m 6.9999802,9.999996 a 1,1 0 1 0 0,1.999993 h 2.0000332 a 1,1 0 1 0 0,-1.999993 z" /></g></clipPath></defs><g
     inkscape:label="Capa 1"
     inkscape:groupmode="layer"
     id="layer1"
     style="display:inline"><rect
       style="fill:#0d6efd;fill-opacity:1;stroke-width:4.45743;stroke-opacity:0.47"
       id="rect1"
       width="364.78998"
       height="381.091"
       x="88.758934"
       y="52.413414" /><g
       id="g9"
       style="display:inline"
       transform="matrix(0.61688533,0,0,0.61688533,-43.497988,-30.68483)"
       inkscape:label="Bus"><path
         d="M 850.20347,489.79797 A 48.908369,48.908369 0 0 0 899.11183,440.8896 V 343.07287 A 48.908369,48.908369 0 0 0 850.20347,294.1645 v -66.51538 c 0,-58.10315 -41.32758,-109.16348 -100.94688,-116.01066 A 2151.9682,2151.9682 0 0 0 507.84488,98.53109 c -102.70757,0 -185.46053,6.65148 -241.41171,13.10737 -59.6193,6.84718 -100.94687,57.90751 -100.94687,116.01066 v 66.51538 a 48.908369,48.908369 0 0 0 -48.90837,48.90837 v 97.81673 a 48.908369,48.908369 0 0 0 48.90837,48.90837 v 171.17929 c 0,40.00705 19.22099,75.51453 48.90837,97.81674 v 97.81674 a 24.454184,24.454184 0 0 0 24.45418,24.45419 h 97.81674 a 24.454184,24.454184 0 0 0 24.45418,-24.45419 v -73.36255 h 293.45022 v 73.36255 a 24.454184,24.454184 0 0 0 24.45418,24.45419 h 97.81674 A 24.454184,24.454184 0 0 0 801.2951,856.61074 V 758.794 c 29.68738,-22.30221 48.90837,-57.80969 48.90837,-97.81674 z M 507.84488,147.43939 c 100.55561,0 181.45005,6.55372 235.83616,12.76508 33.06205,3.81486 57.61406,32.27953 57.61406,67.44465 v 433.32814 a 73.362554,73.362554 0 0 1 -73.36256,73.36256 H 287.75722 A 73.362554,73.362554 0 0 1 214.39467,660.97726 V 227.64912 c 0,-35.21403 24.552,-63.62979 57.61406,-67.44465 a 2103.0599,2103.0599 0 0 1 235.83615,-12.76508"
         id="path1"
         style="display:inline;fill:#000000;fill-opacity:0.47;stroke-width:48.9084"
         inkscape:label="outer-shadow" /><path
         d="M 15,8 A 1,1 0 0 0 16,7 V 5 A 1,1 0 0 0 15,4 V 2.64 C 15,1.452 14.155,0.408 12.936,0.268 A 44,44 0 0 0 8,0 C 5.9,0 4.208,0.136 3.064,0.268 1.845,0.408 1,1.452 1,2.64 V 4 A 1,1 0 0 0 0,5 v 2 a 1,1 0 0 0 1,1 v 3.5 c 0,0.818 0.393,1.544 1,2 v 2 A 0.5,0.5 0 0 0 2.5,16 h 2 A 0.5,0.5 0 0 0 5,15.5 V 14 h 6 v 1.5 a 0.5,0.5 0 0 0 0.5,0.5 h 2 A 0.5,0.5 0 0 0 14,15.5 v -2 c 0.607,-0.456 1,-1.182 1,-2 z M 8,1 c 2.056,0 3.71,0.134 4.822,0.261 C 13.498,1.339 14,1.921 14,2.64 V 11.5 A 1.5,1.5 0 0 1 12.5,13 h -9 A 1.5,1.5 0 0 1 2,11.5 V 2.64 C 2,1.92 2.502,1.339 3.178,1.261 A 43,43 0 0 1 8,1"
         id="path2"
         style="display:inline;fill:#ffffff;fill-opacity:1"
         transform="matrix(48.908369,0,0,48.908369,116.57793,92.209473)"
         inkscape:label="outer" /><g
         id="g5"
         inkscape:label="bus-face"
         style="display:inline;fill:#ffe4e1;stroke:none"
         transform="matrix(48.908369,0,0,48.908369,116.57793,92.209473)"><path
           id="path3"
           style="display:inline;fill:#ffe500;fill-opacity:1;stroke:none"
           d="m 3.9999904,9.999996 a 1,1 0 0 0 -0.9999966,0.999997 1,1 0 1 0 1.9999932,0 1,1 0 0 0 -0.9999966,-0.999997 z m 8.0000126,0 a 1,1 0 0 0 -0.999996,0.999997 1,1 0 1 0 1.999993,0 1,1 0 0 0 -0.999997,-0.999997 z"
           inkscape:label="lights" /><path
           id="path4"
           style="display:inline;fill:#ffffff;fill-opacity:1;stroke:none"
           d="M 8.0000168,1.9999832 A 44,44 0 0 0 3.4480175,2.2260118 0.5,0.5 0 1 0 3.5520066,3.2200182 C 4.6470055,3.1070183 6.1630186,3.0000198 8.0000168,3.0000198 A 43,43 0 0 1 12.447987,3.2200182 0.5,0.5 0 1 0 12.552016,2.2260118 C 11.426017,2.1090119 9.8760149,1.9999832 8.0000168,1.9999832 Z m 0,2.0000332 c -1.8759981,0 -3.4260004,0.1089887 -4.5519993,0.2259886 A 0.5,0.5 0 0 0 2.9999938,4.7229882 v 3.5539994 a 0.5,0.5 0 0 0 0.4480237,0.4970232 c 1.1259989,0.1169999 2.6760012,0.2259886 4.5519993,0.2259886 1.8759981,0 3.4260002,-0.1089887 4.5519992,-0.2259886 A 0.5,0.5 0 0 0 13,8.2769876 V 4.7229882 A 0.5,0.5 0 0 0 12.552016,4.226005 44,44 0 0 0 8.0000168,4.0000164 Z"
           inkscape:label="window" /><path
           id="path5"
           style="display:inline;fill:#ffffff;fill-opacity:1;stroke:none"
           d="m 6.9999802,9.999996 a 1,1 0 1 0 0,1.999993 h 2.0000332 a 1,1 0 1 0 0,-1.999993 z"
           inkscape:label="front" /></g><path
         id="path9"
         style="display:inline;fill:#000000;fill-opacity:0.47;stroke:none;stroke-width:4;stroke-opacity:0.47"
         d="M -79.46875,-44.393 V 558.15583 H 606.98047 V -44.393 Z M 269.78516,90.839421 c 56.60041,0 103.36557,3.29033 137.33789,6.820313 a 15.085427,15.085427 0 1 1 -3.13867,29.988286 1297.3468,1297.3468 0 0 0 -134.19922,-6.63672 c -55.42375,0 -101.16416,3.22742 -134.20118,6.63672 a 15.085427,15.085427 0 1 1 -3.13671,-29.988286 1327.5176,1327.5176 0 0 1 137.33789,-6.820313 z m 0,60.341799 a 1327.5176,1327.5176 0 0 1 137.33789,6.81836 15.085427,15.085427 0 0 1 13.51562,14.99609 v 107.22657 a 15.085427,15.085427 0 0 1 -13.51562,14.99609 c -33.97232,3.52998 -80.73748,6.81836 -137.33789,6.81836 -56.60041,0 -103.36558,-3.28838 -137.33789,-6.81836 A 15.085427,15.085427 0 0 1 118.92969,280.22224 V 172.99567 a 15.085427,15.085427 0 0 1 13.51758,-14.99609 c 33.97231,-3.52998 80.73748,-6.81836 137.33789,-6.81836 z M 149.09961,332.20661 a 30.170855,30.170855 0 0 1 30.17187,30.16992 30.170898,30.170898 0 1 1 -60.34179,0 30.170855,30.170855 0 0 1 30.16992,-30.16992 z m 90.51367,0 h 60.3418 a 30.1709,30.1709 0 1 1 0,60.3418 h -60.3418 a 30.1709,30.1709 0 1 1 0,-60.3418 z m 150.85352,0 a 30.170855,30.170855 0 0 1 30.17187,30.16992 30.170898,30.170898 0 1 1 -60.34179,0 30.170855,30.170855 0 0 1 30.16992,-30.16992 z"
         clip-path="url(#clipPath46)"
         transform="matrix(1.6210468,0,0,1.6210468,70.512275,49.741546)"
         inkscape:label="shadow" /></g></g><metadata
     id="metadata1"><rdf:RDF><cc:Work
         rdf:about=""><dc:creator><cc:Agent><dc:title>1812</dc:title></cc:Agent></dc:creator></cc:Work></rdf:RDF></metadata></svg>
